<?xml version="1.0" encoding="utf-8"?>
<!-- Svg Vector Icons : http://www.sfont.cn -->
<svg version="1.1" xmlns="http://www.w3.org/2000/svg" xmlns:xlink="http://www.w3.org/1999/xlink" x="0px" y="0px" viewBox="0 0 1000 1000" enable-background="new 0 0 1000 1000" xml:space="preserve">
<metadata> Svg Vector Icons : http://www.sfont.cn </metadata>
<g><path d="M913.9,438.2C879.3,380,834,332.4,781.8,295.9c17.9-17.9,35.8-35.8,53.7-53.7c32.2-32.2-17.7-82.1-49.9-49.9c-22.2,22.2-44.4,44.4-66.5,66.5c-30.8-15.1-63.2-27-96.4-35.4c9.8-32.6,19.5-65.1,29.3-97.7c13.1-43.7-55-62.2-68-18.8c-10.4,34.6-20.8,69.2-31.2,103.8c-40.8-4.4-82.2-4-123.3,1.5c-10.5-35.1-21.1-70.3-31.6-105.4c-13-43.4-81.1-24.9-68,18.8c10.1,33.6,20.2,67.3,30.3,100.9c-31,8.7-61.5,20.4-90.8,35.2c-0.8,0.4-1.5,0.8-2.3,1.2c-23.6-23.6-47.2-47.2-70.8-70.8c-32.2-32.2-82.1,17.7-49.9,49.9c19.7,19.7,39.5,39.5,59.2,59.2C84.8,391.1,14.1,538.1,10.1,688.5c-0.1,1.5-0.2,3-0.1,4.5c0,1.8,0.1,3.6,0.2,5.2c8.8,142.9,198.6,187.2,312,204.5c168.4,25.7,362.1,22.1,521.1-45.2c57.9-24.5,109.7-60,134.5-119.6C1015.1,648.7,959.1,514.5,913.9,438.2z M876.1,759.3c-50.7,42.8-126.9,58.5-190.1,70.3c-87.6,16.5-178.3,18.4-267,13.1c-78.6-4.8-157.5-18.3-231.3-46.2c-44.4-16.8-105.5-49.2-107.1-103.4c4.9-276.5,266.2-472.8,533.2-401C734.6,324.6,829.6,416,881.4,527.7C914.1,598.3,943.5,702.5,876.1,759.3z"/><path d="M493.3,334.1c-125.1,0-226.5,101.4-226.5,226.5c0,125.1,101.4,226.5,226.5,226.5c125.1,0,226.5-101.4,226.5-226.5C719.8,435.5,618.4,334.1,493.3,334.1z M404.5,529.2c-24.9,0-45.1-20.2-45.1-45.2c0-24.9,20.2-45.2,45.1-45.2s45.2,20.2,45.2,45.2C449.6,509,429.4,529.2,404.5,529.2z M557.8,613.6c-51.3,0-92.8-41.5-92.8-92.8c0-51.3,41.5-92.8,92.8-92.8c51.3,0,92.8,41.5,92.8,92.8C650.6,572,609.1,613.6,557.8,613.6z"/></g>
</svg>
